<svg width="24" height="24" viewBox="0 0 24 24" fill="none" xmlns="http://www.w3.org/2000/svg">
<rect width="24" height="24" rx="4" fill="#E41F2B"/>
<path d="M0.012207 8H23.9876V16.784H0.012207V8Z" fill="#E41F2B"/>
<path d="M21.6131 10.1063C21.6224 10.0481 21.6574 9.99914 21.683 9.95021C21.7389 9.83837 21.7949 9.72886 21.8251 9.6077C21.8368 9.55644 21.8578 9.49353 21.8112 9.45392C21.7576 9.40732 21.6993 9.44693 21.6504 9.47489C21.5176 9.55178 21.4011 9.64731 21.2869 9.74517C20.9374 10.0411 20.6252 10.3766 20.3386 10.7354C19.8074 11.4018 19.3391 12.1101 18.9103 12.844C18.8241 12.9908 18.7379 13.1376 18.6634 13.3054C18.7286 13.3054 18.7659 13.2681 18.8032 13.2401C19.0105 13.0817 19.2109 12.9163 19.402 12.7415C19.7119 12.4596 20.0101 12.166 20.299 11.8608C20.5157 11.6324 20.7231 11.3971 20.9165 11.1478C21.0073 11.0313 21.0796 11.0057 21.245 11.036C21.2007 11.1408 21.1285 11.227 21.0586 11.3132C20.6625 11.8025 20.2384 12.2662 19.7841 12.7019C19.3903 13.077 18.9709 13.4242 18.5212 13.7294C18.4374 13.7853 18.3791 13.8506 18.3372 13.9461C18.223 14.2047 18.1158 14.468 18.0296 14.7383C17.9993 14.8338 17.9737 14.9317 17.9574 15.0319C17.9457 15.0971 17.9481 15.1624 17.9644 15.2276C17.997 15.3511 18.0809 15.393 18.1904 15.3255C18.3115 15.2532 18.4047 15.146 18.4933 15.0389C18.7263 14.7616 18.9173 14.454 19.12 14.1558C19.3927 13.7574 19.6839 13.3753 20.0357 13.0421C20.2198 12.8673 20.4225 12.7182 20.6415 12.5924C20.7603 12.5248 20.8932 12.4899 21.0306 12.4875C21.1937 12.4852 21.3265 12.5411 21.4151 12.6833C21.4197 12.6926 21.4314 12.6972 21.4384 12.7019C21.4454 12.6996 21.45 12.6996 21.4524 12.6996C21.5106 12.5598 21.6248 12.5458 21.7576 12.5528C21.8997 12.5621 22.0442 12.5528 22.1886 12.5551C22.2702 12.5574 22.2795 12.5714 22.2376 12.6437L21.6923 13.5663C21.3848 14.0882 21.0749 14.6078 20.7836 15.1391C20.7557 15.188 20.7137 15.2462 20.765 15.2975C20.8163 15.3511 20.8745 15.3091 20.9234 15.2789C21.0563 15.1973 21.1728 15.0948 21.2776 14.9783C21.4757 14.7593 21.6574 14.5263 21.8298 14.2886C21.8857 14.2117 21.9999 14.1768 22.0861 14.2094C22.1141 14.221 22.1211 14.2397 22.1094 14.263C22.1001 14.284 22.0861 14.3026 22.0721 14.3236C21.8251 14.701 21.5455 15.0528 21.2333 15.379C21.0632 15.5538 20.8838 15.7216 20.6718 15.8474C20.5576 15.9149 20.4388 15.9685 20.306 15.9918C20.0823 16.0314 19.9122 15.9196 19.8936 15.6959C19.8889 15.6307 19.8796 15.5678 19.8726 15.5002C19.8167 15.5002 19.7957 15.5421 19.7654 15.5701C19.6024 15.7146 19.4299 15.845 19.2319 15.9429C19.127 15.9942 19.0175 16.0128 18.9034 15.9942C18.724 15.9639 18.5981 15.8264 18.5725 15.6377C18.5585 15.5421 18.5655 15.4466 18.5655 15.3394C18.5143 15.3581 18.4933 15.3954 18.463 15.4256C18.3022 15.5957 18.1368 15.7588 17.9364 15.88C17.8456 15.9359 17.7477 15.9732 17.6452 15.9942C17.3982 16.0431 17.1675 15.8544 17.1233 15.5794C17.0953 15.3977 17.1209 15.2229 17.1629 15.0482C17.2211 14.7989 17.3097 14.5566 17.3912 14.3142C17.4005 14.2886 17.4098 14.263 17.4168 14.2374C17.4448 14.1442 17.4401 14.1418 17.3399 14.1535C17.3283 14.1558 17.3166 14.1558 17.305 14.1581C17.0347 14.1768 17.086 14.1558 16.9508 14.3725C16.7388 14.7127 16.5105 15.0389 16.2309 15.3301C16.0165 15.5538 15.7789 15.7425 15.5063 15.8893C15.3968 15.9499 15.2779 15.9848 15.1521 15.9988C14.8981 16.0244 14.7117 15.8916 14.6558 15.6423C14.6046 15.4117 14.6395 15.1857 14.7071 14.9643C14.8189 14.6032 14.982 14.263 15.1964 13.9508C15.4201 13.6269 15.6577 13.317 15.949 13.0514C16.1796 12.8394 16.4336 12.6623 16.7248 12.5481C16.8274 12.5085 16.9322 12.4852 17.0417 12.4875C17.326 12.4899 17.4681 12.6297 17.4844 12.9163C17.4961 13.1213 17.4588 13.317 17.3865 13.5081C17.3446 13.6199 17.298 13.7318 17.2444 13.8389C17.2304 13.8646 17.2025 13.8949 17.2211 13.9251C17.2444 13.9624 17.2864 13.9345 17.319 13.9321C17.3469 13.9321 17.3726 13.9228 17.3982 13.9182C17.5124 13.8972 17.5869 13.8343 17.6405 13.7271C17.9667 13.0794 18.3348 12.4526 18.7496 11.8561C19.2575 11.1268 19.833 10.4558 20.5041 9.87332C20.779 9.63566 21.0563 9.39567 21.3941 9.2419C21.5269 9.18132 21.662 9.13705 21.8088 9.14404C21.9813 9.15103 22.0605 9.23025 22.0698 9.40499C22.0768 9.53547 22.0465 9.65896 22.0022 9.78012C21.9789 9.8407 21.9486 9.90128 21.9207 9.95953C21.8554 10.0853 21.7716 10.125 21.6131 10.1063ZM19.6257 15.3022C19.6886 15.2998 19.7491 15.2532 19.8074 15.1996C20.0194 15.0086 20.1848 14.7756 20.334 14.5356C20.6299 14.0649 20.9141 13.5896 21.2054 13.1166C21.2287 13.077 21.2543 13.0374 21.2683 12.9932C21.2962 12.9046 21.245 12.8464 21.1518 12.8603C21.0702 12.872 20.9933 12.9023 20.9304 12.9582C20.8163 13.0631 20.6928 13.1586 20.5879 13.2727C20.4109 13.4685 20.2384 13.6688 20.0893 13.8855C19.868 14.2047 19.6606 14.5333 19.5255 14.9014C19.4975 14.9783 19.4719 15.0575 19.4672 15.1367C19.4602 15.2439 19.5138 15.3045 19.6257 15.3022ZM16.2262 13.6339C16.168 13.6852 16.1307 13.7551 16.0864 13.818C15.8814 14.1115 15.695 14.4144 15.5692 14.7523C15.5342 14.8432 15.5109 14.9387 15.5039 15.0342C15.4876 15.2416 15.6297 15.3488 15.8231 15.2742C15.9187 15.2369 16.0002 15.1787 16.0748 15.1111C16.3544 14.8595 16.5687 14.5542 16.7575 14.2327C16.818 14.1302 16.8157 14.1279 16.7039 14.0696C16.5478 13.9881 16.408 13.8879 16.3054 13.7387C16.2821 13.7038 16.2682 13.6619 16.2262 13.6339ZM17.2398 13.0887V13.0421C17.2281 12.844 17.1093 12.7695 16.9229 12.8394C16.811 12.8813 16.7178 12.9489 16.641 13.0374C16.5641 13.126 16.5081 13.2262 16.5012 13.3496C16.4825 13.6362 16.6899 13.797 16.8903 13.8832C16.9415 13.9042 16.9695 13.8762 16.9905 13.8343C17.0534 13.7154 17.1186 13.5943 17.1582 13.4638C17.1955 13.3403 17.2444 13.2192 17.2398 13.0887ZM10.8137 10.9568C10.8486 10.8519 10.9279 10.8426 11.0211 10.8472C11.1678 10.8519 11.317 10.8496 11.4638 10.8496C11.6036 10.8496 11.6105 10.8612 11.536 10.9847C11.3752 11.255 11.2121 11.5229 11.049 11.7932C10.7368 12.3128 10.4246 12.8301 10.1124 13.3496C10.0914 13.3869 10.0704 13.4242 10.0658 13.4685C10.0565 13.557 10.1031 13.5966 10.1846 13.564C10.2265 13.5477 10.2661 13.5197 10.3058 13.4941C10.5318 13.3403 10.7135 13.1376 10.8883 12.9279C10.9721 12.8277 11.0537 12.7229 11.1376 12.6204C11.1911 12.5528 11.3333 12.5155 11.4102 12.5481C11.4311 12.5574 11.4381 12.5761 11.4265 12.5947C11.4102 12.6204 11.3915 12.646 11.3729 12.6716C11.1422 12.9838 10.9069 13.2937 10.6366 13.571C10.3943 13.8203 10.1427 14.0673 9.82112 14.2187C9.71861 14.2676 9.61143 14.3073 9.49726 14.2909C9.33183 14.2676 9.21999 14.1442 9.20601 13.9648C9.20135 13.9158 9.20601 13.8646 9.20601 13.804C9.15009 13.8226 9.12912 13.8622 9.09883 13.8902C8.96369 14.0207 8.81458 14.1302 8.64449 14.2117C8.53032 14.2653 8.41149 14.2909 8.28334 14.2863C8.05733 14.277 7.91754 14.1395 7.90589 13.9112C7.8989 13.79 7.91521 13.6712 7.93851 13.5523C7.9455 13.5197 7.96414 13.4871 7.9455 13.4428C7.82434 13.5523 7.71716 13.6688 7.59134 13.7667C7.40261 13.9158 7.21155 14.0626 6.99021 14.1651C6.78983 14.256 6.58479 14.3212 6.35878 14.284C6.08385 14.2374 5.84852 14.016 5.81823 13.7085C5.7926 13.4382 5.85551 13.1842 5.95104 12.9372C6.03259 12.7229 6.13278 12.5178 6.26792 12.2965C6.14909 12.3245 6.05822 12.3454 5.96502 12.3664C5.92541 12.3757 5.91143 12.4083 5.89512 12.4386C5.65746 12.8557 5.36156 13.2285 5.03303 13.5756C4.86993 13.7481 4.69751 13.9088 4.50412 14.0463C4.36666 14.1418 4.2222 14.2234 4.0591 14.2676C3.69795 14.3678 3.40205 14.1605 3.37409 13.7853C3.35778 13.564 3.39273 13.3496 3.4603 13.1423C3.61408 12.6809 3.86105 12.2709 4.16395 11.8911C4.37831 11.6231 4.61596 11.3785 4.88857 11.1711C5.09361 11.015 5.31263 10.8822 5.5596 10.8053C5.66445 10.7727 5.77163 10.7517 5.88114 10.768C6.13045 10.8006 6.28189 10.9661 6.29587 11.22C6.30985 11.4787 6.2353 11.7187 6.13511 11.9517C6.1188 11.9889 6.08851 12.0239 6.09783 12.0775C6.16074 12.0821 6.212 12.0565 6.26325 12.0309C6.4613 11.9353 6.63139 11.8025 6.79682 11.6604C6.98555 11.4973 7.15097 11.3132 7.34669 11.1595C7.53309 11.0127 7.72881 10.8799 7.95715 10.8053C8.10393 10.7564 8.25538 10.754 8.4045 10.789C8.65148 10.8472 8.78662 11.0989 8.72604 11.3785C8.67944 11.5928 8.57459 11.7769 8.42547 11.9353C8.37654 11.9866 8.32062 12.0285 8.25305 12.0495C8.07364 12.1054 7.93851 11.9843 7.97812 11.8025C8.02704 11.5719 8.16218 11.4204 8.39518 11.3692C8.45343 11.3552 8.50003 11.3459 8.4977 11.2713C8.49537 11.1991 8.45576 11.1432 8.38353 11.1315C8.31829 11.1199 8.25305 11.1315 8.19014 11.1571C8.05034 11.2131 7.94083 11.3132 7.83133 11.4134C7.33038 11.8748 6.98089 12.4363 6.73391 13.0677C6.68731 13.1842 6.65469 13.303 6.66401 13.4312C6.68032 13.6968 6.84109 13.8156 7.09738 13.7411C7.28844 13.6852 7.44222 13.5663 7.58668 13.4358C7.96413 13.0933 8.28334 12.6972 8.58624 12.2872C8.83788 11.947 9.10582 11.6185 9.41571 11.3296C9.63939 11.1199 9.87238 10.9195 10.1706 10.8146C10.2289 10.7937 10.2894 10.7797 10.3524 10.7727C10.4922 10.7564 10.6133 10.7937 10.7158 10.8892C10.7438 10.9078 10.7624 10.9404 10.8137 10.9568ZM10.5038 11.1268C10.4619 11.1245 10.4153 11.1432 10.3687 11.1641C10.2475 11.22 10.1683 11.3202 10.0798 11.4134C9.66502 11.8585 9.31552 12.3524 9.01495 12.879C8.91942 13.0467 8.83088 13.2215 8.8006 13.4172C8.77963 13.5593 8.85885 13.6246 8.99165 13.5733C9.10349 13.5314 9.19203 13.4568 9.26892 13.3683C9.45532 13.1539 9.61842 12.9233 9.77219 12.6856C10.0634 12.2313 10.3384 11.7676 10.604 11.2993C10.6716 11.1874 10.6366 11.1268 10.5038 11.1268ZM5.00274 11.8934C4.99575 11.8957 4.98643 11.8981 4.9841 11.9027C4.75343 12.2243 4.53674 12.5551 4.3853 12.9209C4.32938 13.0561 4.28511 13.1982 4.28977 13.3496C4.29443 13.5151 4.39462 13.592 4.56004 13.557C4.68353 13.5314 4.77906 13.4615 4.86993 13.3799C5.14254 13.133 5.35224 12.8347 5.54562 12.5272C5.56892 12.4922 5.59222 12.4549 5.61319 12.4176C5.6528 12.3454 5.65047 12.3361 5.57824 12.3081C5.56659 12.3035 5.55727 12.3012 5.54562 12.2965C5.34292 12.2173 5.16584 12.1054 5.04235 11.919C5.0307 11.9074 5.02138 11.8957 5.00274 11.8934ZM5.27302 11.6884C5.27069 11.7396 5.287 11.7909 5.31729 11.8375C5.41514 11.9866 5.56426 12.0565 5.73202 12.0891C5.78328 12.0984 5.81124 12.0728 5.83221 12.0285C5.93706 11.8258 6.00696 11.6115 6.02094 11.3855C6.03259 11.2037 5.94871 11.0896 5.77629 11.1105C5.5363 11.1408 5.27302 11.4391 5.27302 11.6884Z" fill="#190019"/>
<path d="M16.6645 9.42834C16.5829 9.37475 16.5084 9.38873 16.4361 9.39805C16.2544 9.42135 16.096 9.50057 15.9375 9.58911C15.5368 9.81045 15.1849 10.097 14.8541 10.4093C14.423 10.8147 14.0246 11.248 13.6774 11.728C13.2953 12.2523 12.9528 12.8021 12.6965 13.4009C12.5334 13.7854 12.4123 14.1815 12.3587 14.5962C12.333 14.8036 12.3587 15.0086 12.4798 15.188C12.615 15.3907 12.8503 15.4839 13.0903 15.435C13.2208 15.4071 13.3419 15.3535 13.4538 15.2836C13.7613 15.0878 14.0176 14.8339 14.2366 14.545C14.4417 14.2747 14.6141 13.9858 14.7306 13.6642C14.7865 13.5058 14.8261 13.345 14.8378 13.1773C14.8401 13.154 14.8401 13.1307 14.8378 13.1074C14.8238 12.8697 14.6677 12.7882 14.4626 12.9163C14.3089 13.0118 14.197 13.154 14.0992 13.3031C13.9803 13.4872 13.8988 13.6899 13.8499 13.9019C13.8359 13.9601 13.8102 13.9951 13.7543 14.023C13.4538 14.1675 13.1951 14.3702 12.9575 14.6009C12.9458 14.6125 12.9342 14.6218 12.9225 14.6312C12.9179 14.6358 12.9086 14.6335 12.9016 14.6358C12.8759 14.6195 12.8853 14.5939 12.8876 14.5729C12.9458 14.1652 13.06 13.7761 13.2813 13.4242C13.505 13.0678 13.7986 12.7858 14.1784 12.5994C14.3485 12.5156 14.5256 12.462 14.7189 12.5086C14.8681 12.5458 14.9729 12.6367 15.0312 12.7812C15.0941 12.9373 15.0871 13.1004 15.0731 13.2635C15.0475 13.5734 14.9216 13.8483 14.7818 14.1186C14.6397 14.3958 14.472 14.6568 14.2739 14.8968C13.9407 15.3045 13.5516 15.647 13.0716 15.8707C12.799 15.9989 12.5078 16.0478 12.2096 15.9779C11.8251 15.8847 11.5828 15.6307 11.457 15.2673C11.3125 14.8525 11.3335 14.4308 11.4686 14.0207C11.648 13.4685 11.9043 12.9513 12.1956 12.448C12.4193 12.0635 12.6686 11.7001 12.9505 11.3576C13.3955 10.8147 13.8965 10.33 14.4673 9.91996C14.8354 9.65668 15.2199 9.42601 15.6369 9.25126C15.9049 9.13942 16.1845 9.08117 16.4757 9.0835C16.6318 9.08583 16.7763 9.1301 16.8975 9.22563C16.9487 9.26524 16.9883 9.26757 17.0443 9.2466C17.3006 9.14641 17.5685 9.09981 17.8411 9.09049C18.2302 9.07651 18.596 9.16971 18.9362 9.35378C19.3113 9.55649 19.6864 9.76385 20.0592 9.96889C20.0732 9.97588 20.0872 9.98287 20.0988 9.99219C20.1618 10.0341 20.1618 10.0411 20.1082 10.097C19.9614 10.2462 19.8123 10.3929 19.6678 10.5467C19.6189 10.598 19.5769 10.5933 19.5257 10.5607L18.9944 10.2462C18.7614 10.1064 18.5284 9.96423 18.2954 9.82909C18.0392 9.67997 17.7619 9.57979 17.4706 9.51921C17.3751 9.49824 17.2772 9.49591 17.1817 9.51688C17.1375 9.5262 17.1072 9.54484 17.1072 9.60076C17.0978 10.0761 16.9301 10.5048 16.7017 10.9102C16.527 11.2201 16.301 11.4904 16.0004 11.6931C15.8699 11.7793 15.7301 11.8469 15.581 11.8888C15.3201 11.9657 15.1127 11.8166 15.0964 11.544C15.0871 11.3739 15.1267 11.2131 15.1896 11.057C15.3643 10.6236 15.6556 10.2718 15.9888 9.95258C16.1752 9.7755 16.3779 9.6194 16.5946 9.48193C16.6109 9.46329 16.6295 9.45164 16.6645 9.42834ZM16.8439 9.81045C16.8485 9.62872 16.8439 9.62173 16.7181 9.69162C16.4804 9.82443 16.2707 9.99685 16.0773 10.1902C15.7931 10.4722 15.5624 10.7914 15.3923 11.1525C15.3504 11.2434 15.3154 11.3389 15.3131 11.4414C15.3108 11.6045 15.4296 11.6907 15.5834 11.6418C15.7651 11.5859 15.9142 11.4764 16.054 11.3482C16.294 11.1246 16.4734 10.8589 16.6179 10.57C16.7437 10.3207 16.8252 10.0528 16.8439 9.81045ZM10.7743 16.1433C10.6555 16.0781 10.5553 16.0198 10.4504 15.9686C9.99608 15.7496 9.52077 15.6214 9.0105 15.647C8.74256 15.661 8.50024 15.7379 8.29986 15.922C8.26957 15.9499 8.24161 15.9826 8.21365 16.0152C8.1321 16.113 8.12977 16.1154 8.05988 16.0128C7.94105 15.8404 7.78727 15.7076 7.6032 15.6051C7.33758 15.456 7.04867 15.3907 6.74577 15.3651C6.18425 15.3185 5.63903 15.414 5.09848 15.5445C4.50667 15.689 3.91485 15.8334 3.31372 15.9383C3.03412 15.9872 2.7522 16.0222 2.46794 15.9756C1.96466 15.8917 1.53828 15.6797 1.2447 15.2486C1.11655 15.0622 1.06296 14.8479 1.02569 14.6288C0.939476 14.1279 1.00705 13.6386 1.16082 13.161C1.34955 12.5715 1.64546 12.0379 2.00427 11.5346C2.32581 11.0826 2.69861 10.6772 3.10402 10.3044C3.59798 9.85006 4.14319 9.46562 4.77461 9.22097C5.03324 9.12078 5.29886 9.05554 5.58078 9.05554C5.99785 9.05787 6.23784 9.31883 6.17959 9.72657C6.14464 9.96889 6.03979 10.1856 5.86271 10.3603C5.79747 10.4232 5.72291 10.4698 5.62971 10.4861C5.50855 10.5071 5.40604 10.4372 5.38041 10.3161C5.3408 10.1273 5.44099 9.91064 5.61573 9.81278C5.68796 9.77317 5.76252 9.74055 5.84407 9.73123C5.89999 9.72424 5.92096 9.68929 5.92562 9.63571C5.93727 9.50057 5.86271 9.41203 5.72524 9.40271C5.62738 9.39572 5.53185 9.41436 5.43866 9.44465C5.0845 9.56348 4.77461 9.76385 4.49269 10.0062C3.84728 10.563 3.30906 11.2154 2.84073 11.9237C2.53085 12.3921 2.29086 12.8977 2.14174 13.4406C2.04854 13.7807 1.97864 14.1279 2.00427 14.4867C2.02524 14.7849 2.13009 15.0436 2.3561 15.2486C2.48425 15.3628 2.63337 15.435 2.79414 15.4816C2.93859 15.5235 3.08771 15.5515 3.24149 15.5585C3.72612 15.5841 4.20144 15.5119 4.67209 15.4024C5.28488 15.2579 5.89533 15.1135 6.50811 14.969C6.95547 14.8618 7.40748 14.7873 7.86649 14.7966C8.65402 14.8129 9.38097 15.0226 10.038 15.4653C10.271 15.6214 10.4807 15.8055 10.6788 16.0035C10.716 16.0361 10.7533 16.0711 10.7743 16.1433ZM23.5961 9.12311C23.6078 9.16272 23.5891 9.18369 23.5752 9.20699C23.2327 9.77317 22.7806 10.2275 22.1982 10.5467C21.8207 10.7541 21.4223 10.8986 20.9889 10.9382C20.8095 10.9545 20.6324 10.9452 20.4553 10.9079C20.3668 10.8892 20.3598 10.8729 20.4134 10.8054C20.5485 10.6353 20.6907 10.4698 20.8398 10.3114C20.8771 10.2718 20.9213 10.2741 20.9679 10.2741C21.138 10.2741 21.3081 10.2811 21.4805 10.2578C21.872 10.2042 22.2284 10.0598 22.5733 9.87569C22.9274 9.68463 23.242 9.43999 23.5356 9.16505C23.5472 9.1534 23.5589 9.14408 23.5705 9.13476C23.5752 9.12777 23.5822 9.12777 23.5961 9.12311ZM12.4542 10.8473C12.5427 10.8473 12.6336 10.845 12.7222 10.8473C12.7804 10.8496 12.7921 10.8683 12.7594 10.9195C12.6569 11.0896 12.5521 11.255 12.4472 11.4251C12.4216 11.4671 12.389 11.4834 12.3424 11.481C12.1676 11.481 11.9929 11.4834 11.8181 11.4787C11.7389 11.4787 11.7273 11.4577 11.7692 11.3878C11.8671 11.2247 11.9672 11.064 12.0674 10.9009C12.0931 10.8589 12.1257 10.8426 12.1746 10.845C12.2678 10.8473 12.361 10.8473 12.4542 10.8473Z" fill="#190019"/>
</svg>
