<svg width="621" height="244" viewBox="0 0 621 244" fill="none" xmlns="http://www.w3.org/2000/svg">
<g opacity="0.1">
<rect x="0.75" y="0.5" width="619.5" height="243" stroke="#FBE4D8"/>
<line x1="61.4922" y1="2.22049e-08" x2="61.4922" y2="244" stroke="#FBE4D8"/>
<line x1="124.103" y1="2.22049e-08" x2="124.103" y2="244" stroke="#FBE4D8"/>
<line x1="186.713" y1="2.22049e-08" x2="186.713" y2="244" stroke="#FBE4D8"/>
<line x1="249.324" y1="2.22049e-08" x2="249.324" y2="244" stroke="#FBE4D8"/>
<line x1="311.935" y1="2.22049e-08" x2="311.935" y2="244" stroke="#FBE4D8"/>
<line x1="374.545" y1="2.22049e-08" x2="374.545" y2="244" stroke="#FBE4D8"/>
<line x1="437.156" y1="2.22049e-08" x2="437.156" y2="244" stroke="#FBE4D8"/>
<line x1="499.767" y1="2.22049e-08" x2="499.767" y2="244" stroke="#FBE4D8"/>
<line x1="562.377" y1="2.22049e-08" x2="562.377" y2="244" stroke="#FBE4D8"/>
<line x1="620.75" y1="63.1615" x2="0.25" y2="63.1614" stroke="#FBE4D8"/>
<line x1="620.75" y1="124.874" x2="0.25" y2="124.873" stroke="#FBE4D8"/>
<line x1="620.75" y1="186.586" x2="0.25" y2="186.586" stroke="#FBE4D8"/>
</g>
</svg>
