<svg width="623" height="219" viewBox="0 0 623 219" fill="none" xmlns="http://www.w3.org/2000/svg">
<path opacity="0.2" d="M10.4449 202.314L1.25 218H621.25V18.0052L603.517 33.6911L594.322 66.7435L591.038 61.7016H579.216L570.678 33.6911L560.826 39.2932L551.631 26.9686L543.75 31.4503L539.153 23.0471L526.017 15.7644L514.852 39.2932L495.805 10.7225L487.924 26.9686L483.326 15.7644L474.131 4L466.907 15.7644L456.398 39.2932L449.831 43.7749L439.322 56.0995L426.843 72.9058L420.275 92.5131L414.364 113.801L400.572 109.88L394.661 98.6754L391.377 80.7487L384.809 72.9058L376.271 92.5131L372.331 107.079L364.449 92.5131L355.254 87.4712L347.373 98.6754L336.208 72.9058V46.0157H327.669C325.48 51.0576 321.102 61.5895 321.102 63.3822C321.102 65.1749 317.161 37.2391 315.191 23.0471L305.996 33.6911L296.801 26.9686L291.547 4L283.008 31.4503L273.814 46.0157L269.216 26.9686L258.051 48.8168H250.169L246.229 72.9058L237.034 87.4712H227.182L216.674 63.3822L210.106 37.0524L206.165 87.4712V113.801H198.284L190.403 92.5131L184.492 98.6754L181.864 116.042H173.326L160.847 126.126L158.22 140.691L150.996 142.932L143.771 175.984L137.86 166.461L132.606 136.77L120.127 126.126L110.275 142.932H103.051L95.8263 153.576L83.3475 126.126L76.1229 98.6754L65.6144 105.958L57.0763 142.932L49.8517 169.262L36.0593 182.147L30.1483 169.262L22.2669 178.785L10.4449 202.314Z" fill="url(#paint0_linear_5628_851)"/>
<path d="M1.25 218L10.4449 202.314L22.2669 178.785L30.1483 169.262L36.0593 182.147L49.8517 169.262L57.0763 142.932L65.6144 105.958L76.1229 98.6754L83.3475 126.126L95.8263 153.576L103.051 142.932H110.275L120.127 126.126L132.606 136.77L137.86 166.461L143.771 175.984L150.996 142.932L158.22 140.691L160.847 126.126L173.326 116.042H181.864L184.492 98.6754L190.403 92.5131L198.284 113.801H206.165V87.4712L210.106 37.0524L216.674 63.3822L227.182 87.4712H237.034L246.229 72.9058L250.169 48.8168H258.051L269.216 26.9686L273.814 46.0157L283.008 31.4503L291.547 4L296.801 26.9686L305.996 33.6911L315.191 23.0471C317.161 37.2391 321.102 65.1749 321.102 63.3822C321.102 61.5895 325.48 51.0576 327.669 46.0157H336.208V72.9058L347.373 98.6754L355.254 87.4712L364.449 92.5131L372.331 107.079L376.271 92.5131L384.809 72.9058L391.377 80.7487L394.661 98.6754L400.572 109.88L414.364 113.801L420.275 92.5131L426.843 72.9058L439.322 56.0995L449.83 43.7749L456.398 39.2932L466.907 15.7644L474.131 4L483.326 15.7644L487.924 26.9686L495.805 10.7225L514.852 39.2932L526.017 15.7644L539.153 23.0471L543.75 31.4503L551.631 26.9686L560.826 39.2932L570.678 33.6911L579.216 61.7016H591.038L594.322 66.7435L603.517 33.6911L621.25 18.0052" stroke="#7AA3FF" stroke-opacity="0.5" stroke-width="2"/>
<line opacity="0.5" x1="622.75" y1="44.5" x2="2.25" y2="44.4999" stroke="#407BFF" stroke-dasharray="2 2"/>
<defs>
<linearGradient id="paint0_linear_5628_851" x1="311.25" y1="4" x2="311.25" y2="218" gradientUnits="userSpaceOnUse">
<stop stop-color="#7AA3FF" stop-opacity="0.68"/>
<stop offset="1" stop-color="#6425FE" stop-opacity="0"/>
</linearGradient>
</defs>
</svg>
