<svg width="24" height="24" viewBox="0 0 24 24" fill="none" xmlns="http://www.w3.org/2000/svg">
<g clip-path="url(#clip0_5687_356)">
<path d="M23.527 21.4193V21.4673H23.5718C23.5802 21.4674 23.5885 21.4653 23.5958 21.4611C23.5987 21.4591 23.6011 21.4563 23.6026 21.4531C23.6042 21.4499 23.605 21.4464 23.6048 21.4428C23.6049 21.4393 23.6042 21.4358 23.6026 21.4327C23.6011 21.4295 23.5987 21.4269 23.5958 21.4249C23.5886 21.4206 23.5802 21.4184 23.5718 21.4188H23.527V21.4193ZM23.5723 21.3853C23.5915 21.3841 23.6105 21.3896 23.626 21.4009C23.6323 21.406 23.6372 21.4125 23.6405 21.4199C23.6438 21.4273 23.6453 21.4353 23.6449 21.4434C23.6452 21.4503 23.644 21.4572 23.6414 21.4637C23.6387 21.4701 23.6348 21.4759 23.6298 21.4807C23.6177 21.4911 23.6027 21.4974 23.5868 21.4986L23.6468 21.567H23.6006L23.5454 21.4991H23.5275V21.567H23.4889V21.3854H23.5729L23.5723 21.3853ZM23.5603 21.6296C23.5805 21.6298 23.6006 21.6257 23.6192 21.6176C23.6371 21.6099 23.6534 21.5989 23.6672 21.5851C23.681 21.5713 23.6921 21.555 23.6997 21.5371C23.7155 21.4991 23.7155 21.4563 23.6997 21.4183C23.692 21.4004 23.6809 21.3841 23.6672 21.3703C23.6534 21.3565 23.6371 21.3455 23.6192 21.3378C23.6005 21.3301 23.5805 21.3263 23.5603 21.3265C23.5397 21.3263 23.5194 21.3301 23.5003 21.3378C23.482 21.3454 23.4653 21.3564 23.4512 21.3703C23.43 21.3921 23.4156 21.4196 23.4099 21.4495C23.4042 21.4794 23.4074 21.5102 23.4192 21.5383C23.4265 21.5563 23.4374 21.5726 23.4512 21.5863C23.4653 21.6002 23.482 21.6112 23.5003 21.6188C23.5192 21.6269 23.5397 21.631 23.5603 21.6308M23.5603 21.2828C23.613 21.2828 23.6637 21.3035 23.7013 21.3404C23.7194 21.3582 23.7339 21.3793 23.7438 21.4027C23.754 21.4267 23.7593 21.4525 23.7593 21.4786C23.7593 21.5047 23.754 21.5305 23.7438 21.5545C23.7336 21.5777 23.7192 21.5989 23.7013 21.6168C23.6829 21.6344 23.6615 21.6487 23.638 21.6588C23.6135 21.6692 23.587 21.6745 23.5603 21.6744C23.5333 21.6746 23.5065 21.6693 23.4816 21.6588C23.4579 21.6489 23.4363 21.6347 23.4178 21.6168C23.3999 21.5982 23.3857 21.5764 23.376 21.5525C23.3657 21.5285 23.3604 21.5027 23.3604 21.4766C23.3604 21.4505 23.3657 21.4247 23.376 21.4007C23.3859 21.3773 23.4003 21.3561 23.4184 21.3384C23.4366 21.3202 23.4583 21.3059 23.4822 21.2964C23.5071 21.2859 23.5339 21.2806 23.5609 21.2808M5.18588 20.5817C5.18588 20.2355 5.41268 19.9511 5.78336 19.9511C6.1376 19.9511 6.37664 20.2232 6.37664 20.5817C6.37664 20.9401 6.1376 21.2123 5.78336 21.2123C5.41268 21.2123 5.18588 20.9279 5.18588 20.5817ZM6.78044 20.5817V19.5965H6.35216V19.8365C6.21632 19.6591 6.01028 19.5479 5.73008 19.5479C5.17808 19.5479 4.74488 19.9808 4.74488 20.5821C4.74488 21.1835 5.17784 21.6164 5.73008 21.6164C6.01016 21.6164 6.21632 21.5051 6.35216 21.3278V21.567H6.77996V20.5817H6.78044ZM21.2515 20.5817C21.2515 20.2355 21.4783 19.9511 21.8491 19.9511C22.2037 19.9511 22.4424 20.2232 22.4424 20.5817C22.4424 20.9401 22.2037 21.2123 21.8491 21.2123C21.4784 21.2123 21.2515 20.9279 21.2515 20.5817ZM22.8465 20.5817V18.8057H22.4179V19.8365C22.282 19.6591 22.076 19.5479 21.7958 19.5479C21.2438 19.5479 20.8106 19.9808 20.8106 20.5821C20.8106 21.1835 21.2436 21.6164 21.7958 21.6164C22.076 21.6164 22.282 21.5051 22.4179 21.3278V21.567H22.8465V20.5817ZM12.096 19.9308C12.372 19.9308 12.5492 20.1038 12.5944 20.4085H11.5725C11.6182 20.1241 11.7909 19.9308 12.0961 19.9308M12.1046 19.5468C11.5274 19.5468 11.1236 19.9668 11.1236 20.5811C11.1236 21.2073 11.5436 21.6153 12.1333 21.6153C12.4299 21.6153 12.7016 21.5413 12.9406 21.3393L12.7308 21.0219C12.5656 21.1539 12.3554 21.228 12.1578 21.228C11.8818 21.228 11.6305 21.1002 11.5687 20.7456H13.0311C13.0353 20.6923 13.0396 20.6385 13.0396 20.5809C13.0353 19.9669 12.6556 19.5467 12.1044 19.5467M17.2752 20.5809C17.2752 20.2347 17.502 19.9503 17.8726 19.9503C18.2269 19.9503 18.4659 20.2225 18.4659 20.5809C18.4659 20.9394 18.2269 21.2115 17.8726 21.2115C17.502 21.2115 17.275 20.9271 17.275 20.5809M18.8696 20.5809V19.5965H18.4416V19.8365C18.3052 19.6591 18.0997 19.5479 17.8195 19.5479C17.2675 19.5479 16.8343 19.9808 16.8343 20.5821C16.8343 21.1835 17.2672 21.6164 17.8195 21.6164C18.0997 21.6164 18.3052 21.5051 18.4416 21.3278V21.567H18.8697V20.5817L18.8696 20.5809ZM14.8566 20.5809C14.8566 21.1784 15.2725 21.6152 15.9073 21.6152C16.2039 21.6152 16.4016 21.5492 16.6153 21.3804L16.4096 21.0342C16.2488 21.1497 16.08 21.2115 15.8936 21.2115C15.5517 21.2073 15.3003 20.9601 15.3003 20.5809C15.3003 20.2017 15.5517 19.9547 15.8936 19.9503C16.0795 19.9503 16.2483 20.0121 16.4096 20.1277L16.6153 19.7815C16.4012 19.6127 16.2036 19.5467 15.9073 19.5467C15.2725 19.5467 14.8566 19.9833 14.8566 20.5809ZM20.3778 19.5467C20.1307 19.5467 19.9698 19.6622 19.8585 19.8353V19.5965H19.4341V21.5659H19.8628V20.4619C19.8628 20.136 20.0029 19.9549 20.2828 19.9549C20.3745 19.9536 20.4655 19.9704 20.5507 20.0045L20.6827 19.6008C20.5879 19.5635 20.4643 19.547 20.3775 19.547M8.89784 19.7531C8.6918 19.6172 8.40788 19.547 8.09468 19.547C7.59572 19.547 7.27448 19.7862 7.27448 20.1775C7.27448 20.4986 7.51364 20.6967 7.95404 20.7585L8.15636 20.7873C8.3912 20.8203 8.50208 20.8821 8.50208 20.9934C8.50208 21.1457 8.34608 21.2325 8.05316 21.2325C7.75652 21.2325 7.54244 21.1377 7.39808 21.0265L7.19684 21.3605C7.43168 21.5335 7.72832 21.6161 8.04956 21.6161C8.61836 21.6161 8.948 21.3482 8.948 20.9732C8.948 20.627 8.68856 20.4459 8.25992 20.3841L8.05808 20.3549C7.87268 20.3309 7.72412 20.2935 7.72412 20.1615C7.72412 20.0175 7.86416 19.9309 8.09912 19.9309C8.35052 19.9309 8.59388 20.0257 8.71316 20.0997L8.89856 19.7535L8.89784 19.7531ZM14.424 19.5474C14.1769 19.5474 14.016 19.6629 13.9052 19.836V19.5965H13.4808V21.5659H13.909V20.4619C13.909 20.136 14.0491 19.9549 14.329 19.9549C14.4207 19.9536 14.5117 19.9704 14.5969 20.0045L14.7289 19.6008C14.6341 19.5635 14.5105 19.547 14.4237 19.547M10.7692 19.5965H10.0689V18.999H9.63596V19.5965H9.23648V19.9879H9.63596V20.8863C9.63596 21.3433 9.81332 21.6155 10.32 21.6155C10.5058 21.6155 10.7199 21.5579 10.8558 21.4632L10.732 21.0965C10.6042 21.1705 10.4642 21.2078 10.3528 21.2078C10.1388 21.2078 10.0689 21.0758 10.0689 20.8782V19.9883H10.7692V19.5965ZM4.36616 21.5664V20.3304C4.36616 19.8649 4.06952 19.5517 3.59132 19.5475C3.33992 19.5433 3.0806 19.6215 2.89904 19.8979C2.7632 19.6795 2.54912 19.5475 2.24816 19.5475C2.0378 19.5475 1.83224 19.6093 1.67132 19.8399V19.5965H1.24268V21.5659H1.67468V20.4739C1.67468 20.132 1.86428 19.9503 2.15708 19.9503C2.44148 19.9503 2.58536 20.1357 2.58536 20.4696V21.5657H3.01832V20.4737C3.01832 20.1318 3.21596 19.9501 3.50024 19.9501C3.79268 19.9501 3.93224 20.1355 3.93224 20.4693V21.5654L4.36616 21.5664Z" fill="#2D56B2"/>
<path d="M23.7711 15.0148V14.7268H23.6961L23.6093 14.9244L23.523 14.7268H23.4478V15.0148H23.5011V14.7978L23.5822 14.985H23.6374L23.7185 14.7974V15.0148H23.7713H23.7711ZM23.2953 15.0148V14.7761H23.3913V14.7275H23.146V14.7761H23.242V15.0148H23.2948H23.2953Z" fill="#F79410"/>
<path d="M15.2467 16.2502H8.75635V4.58618H15.2468L15.2467 16.2502Z" fill="#FF5F00"/>
<path d="M9.168 10.418C9.168 8.05201 10.2758 5.94433 12.001 4.58605C10.6951 3.55638 9.08002 2.99755 7.41708 3.00001C3.32064 3.00001 0 6.32113 0 10.418C0 14.515 3.32064 17.8361 7.41708 17.8361C9.08007 17.8386 10.6952 17.2797 12.0011 16.25C10.2761 14.892 9.168 12.7842 9.168 10.418Z" fill="#EB001B"/>
<path d="M24.0031 10.4183C24.0031 14.5152 20.6825 17.8363 16.5861 17.8363C14.9229 17.8388 13.3076 17.28 12.0015 16.2503C13.7271 14.892 14.8349 12.7845 14.8349 10.4183C14.8349 8.05213 13.7271 5.94457 12.0015 4.58629C13.3075 3.55666 14.9228 2.99784 16.5859 3.00025C20.6824 3.00025 24.003 6.32137 24.003 10.4183" fill="#F79E1B"/>
</g>
<defs>
<clipPath id="clip0_5687_356">
<rect width="24" height="24" fill="white"/>
</clipPath>
</defs>
</svg>
