<svg width="24" height="24" viewBox="0 0 24 24" fill="none" xmlns="http://www.w3.org/2000/svg">
<rect width="24" height="24" fill="black"/>
<path d="M4.8733 13.597C4.8733 14.2592 5.01859 14.7676 5.20864 15.0752C5.45775 15.4781 5.82927 15.6491 6.20806 15.6491C6.69654 15.6491 7.14347 15.5279 8.00471 14.3367C8.69486 13.3819 9.50772 12.0418 10.0548 11.2016L10.9812 9.77822C11.6247 8.7897 12.3695 7.69083 13.2236 6.94597C13.921 6.33798 14.6729 6.00024 15.4298 6.00024C16.7007 6.00024 17.9111 6.73668 18.8375 8.11786C19.8514 9.63046 20.3435 11.5358 20.3435 13.5019C20.3435 14.6708 20.1131 15.5297 19.7211 16.2082C19.3424 16.8644 18.6041 17.52 17.3623 17.52V15.6488C18.4256 15.6488 18.6909 14.6717 18.6909 13.5535C18.6909 11.9601 18.3194 10.1917 17.5009 8.92817C16.9202 8.03191 16.1675 7.48429 15.3394 7.48429C14.4437 7.48429 13.723 8.15992 12.9129 9.3642C12.4823 10.0042 12.0402 10.784 11.5438 11.6639L10.9974 12.632C9.8998 14.5786 9.62171 15.0217 9.07285 15.7531C8.11092 17.0341 7.28942 17.5197 6.20806 17.5197C4.92517 17.5197 4.11398 16.9642 3.61155 16.1271C3.20145 15.445 3 14.5499 3 13.53L4.8733 13.597Z" fill="white"/>
<path d="M4.47705 8.24969C5.33589 6.92582 6.57534 6 7.99691 6C8.82016 6 9.63875 6.24366 10.4932 6.94152C11.4281 7.70432 12.4244 8.96113 13.6675 11.0316L14.1132 11.7744C15.1892 13.5669 15.8013 14.4891 16.1596 14.924C16.6204 15.4824 16.9431 15.6489 17.3622 15.6489C18.4256 15.6489 18.6909 14.6718 18.6909 13.5536L20.3435 13.5018C20.3435 14.6707 20.1131 15.5295 19.721 16.208C19.3423 16.8642 18.6041 17.5198 17.3622 17.5198C16.5902 17.5198 15.9063 17.3522 15.15 16.6386C14.5688 16.091 13.8888 15.1182 13.3659 14.2436L11.8104 11.6454C11.03 10.3414 10.3139 9.36919 9.89978 8.92887C9.45401 8.45535 8.88104 7.88361 7.96669 7.88361C7.2267 7.88361 6.59822 8.4029 6.07232 9.19723L4.47705 8.24969Z" fill="white"/>
<path d="M7.96672 7.88361C7.22672 7.88361 6.59825 8.4029 6.07235 9.19723C5.32865 10.3196 4.87366 11.9915 4.87366 13.597C4.87366 14.2593 5.01896 14.7677 5.209 15.0752L3.61155 16.1271C3.20145 15.445 3 14.5499 3 13.5301C3 11.6755 3.50904 9.74245 4.47708 8.24969C5.33592 6.92582 6.57536 6 7.99694 6L7.96672 7.88361Z" fill="white"/>
</svg>
