<svg width="988" height="258" viewBox="0 0 988 258" fill="none" xmlns="http://www.w3.org/2000/svg">
<path d="M0.276151 187.308C38.2548 187.308 38.2548 36.0868 76.2337 36.0868C114.212 36.0868 114.212 70.4553 152.191 70.4553C190.17 70.4553 190.17 159.813 228.149 159.813C266.128 159.813 266.128 56.7079 304.107 56.7079C342.086 56.7079 342.086 173.561 380.063 173.561C418.042 173.561 418.042 104.824 456.021 104.824C494 104.824 494 77.329 531.979 77.329C569.958 77.329 569.958 207.929 607.937 207.929C645.914 207.929 645.914 256.045 683.893 256.045C721.872 256.045 721.872 1.71842 759.851 1.71842C797.831 1.71842 797.831 139.192 835.81 139.192C873.787 139.192 873.787 221.676 911.766 221.676C949.745 221.676 949.745 42.9605 987.724 42.9605" stroke="#2D56B2" stroke-width="3"/>
</svg>
