<svg width="24" height="24" viewBox="0 0 24 24" fill="none" xmlns="http://www.w3.org/2000/svg">
<path d="M23.8325 20.1124C23.8325 20.37 23.6434 20.5428 23.4196 20.5428V20.5412C23.1894 20.5428 23.0038 20.3699 23.0038 20.1125C23.0038 19.8551 23.1894 19.6828 23.4196 19.6828C23.6435 19.6827 23.8325 19.8551 23.8325 20.1124ZM24 20.1124C24 19.759 23.7255 19.5539 23.4196 19.5539C23.1115 19.5539 22.837 19.759 22.837 20.1124C22.837 20.4656 23.1116 20.6716 23.4196 20.6716C23.7255 20.6716 24 20.4656 24 20.1124ZM23.3233 20.1597H23.3854L23.5294 20.4126H23.6875L23.528 20.149C23.6104 20.1432 23.6782 20.104 23.6782 19.993C23.6782 19.8551 23.5831 19.8108 23.4222 19.8108H23.1892V20.4126H23.3231L23.3233 20.1597ZM23.3233 20.0578V19.913H23.4164C23.4671 19.913 23.5361 19.9171 23.5361 19.9789C23.5361 20.0461 23.5004 20.0578 23.4407 20.0578H23.3233ZM20.0911 17.0339L20.8148 19.0137H19.345L20.0911 17.0339ZM19.3161 16.2631L17.6483 20.4886H18.8259L19.0897 19.7419H21.0634L21.3131 20.4886H22.5915L20.9113 16.2625L19.3161 16.2631ZM15.9678 20.4902H17.1626V16.2618L15.9676 16.2615L15.9678 20.4902ZM7.67323 16.2615L6.67638 19.6129L5.72146 16.2618L4.43228 16.2615L5.7961 20.4902H7.5174L8.89221 16.2615H7.67323ZM12.5028 17.1823H13.0164C13.7613 17.1823 14.2432 17.5167 14.2432 18.3847C14.2432 19.2529 13.7613 19.5874 13.0164 19.5874H12.5028V17.1823ZM11.318 16.2615V20.4902H13.255C14.287 20.4902 14.624 20.3187 14.9884 19.9339C15.2458 19.6637 15.4123 19.0706 15.4123 18.4224C15.4123 17.8278 15.2714 17.2978 15.0258 16.9676C14.5833 16.377 13.9458 16.2615 12.9943 16.2615H11.318ZM0 16.2556V20.4902H1.20492V17.2749L2.13853 17.2751C2.44766 17.2751 2.66803 17.3522 2.81689 17.5112C3.0057 17.7123 3.0828 18.0369 3.0828 18.6308V20.4902H4.25036V18.1506C4.25036 16.4808 3.18605 16.2556 2.14468 16.2556H0ZM9.39507 16.2615L9.39555 20.4902H10.5898V16.2615H9.39507Z" fill="#2C2C2C"/>
<path d="M3.21114 7.84166C3.21114 7.84166 4.74786 5.57434 7.81618 5.33977V4.51719C4.41762 4.79013 1.47461 7.66855 1.47461 7.66855C1.47461 7.66855 3.14148 12.4871 7.81618 12.9284V12.0541C4.38567 11.6225 3.21114 7.84166 3.21114 7.84166ZM7.81618 10.3152V11.116C5.22347 10.6537 4.5038 7.95863 4.5038 7.95863C4.5038 7.95863 5.74867 6.57958 7.81618 6.35594V7.23459C7.81461 7.23459 7.81351 7.23411 7.81222 7.23411C6.72708 7.10389 5.87937 8.1176 5.87937 8.1176C5.87937 8.1176 6.3545 9.82408 7.81618 10.3152ZM7.81618 3V4.51719C7.91594 4.50954 8.01571 4.50306 8.11602 4.49964C11.9798 4.36942 14.4973 7.66855 14.4973 7.66855C14.4973 7.66855 11.6059 11.1845 8.59348 11.1845C8.3174 11.1845 8.05894 11.1589 7.81618 11.1159V12.0541C8.03089 12.0816 8.24713 12.0956 8.4636 12.0958C11.2668 12.0958 13.2941 10.6642 15.257 8.96982C15.5825 9.23047 16.9149 9.86458 17.1888 10.1421C15.3224 11.7048 10.9726 12.9644 8.50656 12.9644C8.26885 12.9644 8.04057 12.95 7.81618 12.9284V14.2467H18.4711V3H7.81618ZM7.81618 6.35594V5.33977C7.91492 5.33287 8.01441 5.32762 8.11602 5.32441C10.8945 5.23714 12.7173 7.71205 12.7173 7.71205C12.7173 7.71205 10.7485 10.4464 8.63746 10.4464C8.33365 10.4464 8.06126 10.3976 7.81611 10.3151V7.23452C8.89777 7.36522 9.11547 7.84302 9.76576 8.92707L11.2121 7.70754C11.2121 7.70754 10.1564 6.32289 8.37661 6.32289C8.18308 6.32282 7.99796 6.33648 7.81618 6.35594Z" fill="#2C2C2C"/>
</svg>
