<svg width="29" height="22" viewBox="0 0 29 22" fill="none" xmlns="http://www.w3.org/2000/svg">
<path d="M15.0965 19.1698L17.9677 6.91968C20.7045 6.91968 21.5677 7.14735 21.6924 8.07661C21.6924 8.07661 23.5283 7.5573 24.4543 6.5026C20.8409 5.2324 17.2103 5.17511 17.2103 5.17511L15.0917 7.13261L15.0965 7.13236L12.978 5.1748C12.978 5.1748 9.34727 5.23215 5.73438 6.50236C6.65953 7.55706 8.49617 8.07636 8.49617 8.07636C8.62153 7.14704 9.48372 6.91937 12.2021 6.9179L15.0965 19.1698Z" fill="#2C2C2C"/>
<path d="M15.0953 4.60958C18.0162 4.59263 21.3595 4.95237 24.782 6.084C25.2395 5.45939 25.3571 5.18335 25.3571 5.18335C21.6157 4.06043 18.112 3.67614 15.0949 3.6665C12.0779 3.67614 8.57435 4.0605 4.8335 5.18335C4.8335 5.18335 5.00038 5.52337 5.40813 6.084C8.83002 4.95237 12.1739 4.59263 15.0949 4.60958H15.0953Z" fill="#2C2C2C"/>
</svg>
