<svg width="24" height="24" viewBox="0 0 24 24" fill="none" xmlns="http://www.w3.org/2000/svg">
<path d="M12.4936 20.9124L14.8697 7.54864C17.1347 7.54864 17.8491 7.797 17.9522 8.81074C17.9522 8.81074 19.4716 8.24423 20.2379 7.09365C17.2475 5.70797 14.2429 5.64548 14.2429 5.64548L12.4896 7.78093L12.4936 7.78066L10.7403 5.64514C10.7403 5.64514 7.73559 5.7077 4.74561 7.09338C5.51125 8.24396 7.03123 8.81048 7.03123 8.81048C7.13498 7.79667 7.84852 7.54831 10.0982 7.5467L12.4936 20.9124Z" fill="white"/>
<path d="M12.4925 5.02869C14.9098 5.0102 17.6767 5.40264 20.5091 6.63714C20.8877 5.95576 20.985 5.65462 20.985 5.65462C17.8887 4.42962 14.9891 4.01039 12.4922 3.99988C9.99537 4.01039 7.09588 4.42969 4 5.65462C4 5.65462 4.13811 6.02555 4.47556 6.63714C7.30747 5.40264 10.0748 5.0102 12.4922 5.02869H12.4925Z" fill="white"/>
</svg>
